<svg xmlns="http://www.w3.org/2000/svg" width="415" height="179" fill="none"><path fill="#FE6571" d="M90.61 0c50.007 0 90.609 40.1 90.609 89.488 0 49.389-40.602 89.488-90.61 89.488C40.603 178.976 0 138.877 0 89.488 0 40.1 40.602 0 90.61 0Z"/><path fill="#082C4E" d="M173.61 0c50.007 0 90.609 40.1 90.609 89.488 0 49.389-40.602 89.488-90.609 89.488-50.008 0-90.61-40.099-90.61-89.488C83 40.1 123.602 0 173.61 0Z"/><path fill="#FC0" d="M263.61 0c50.007 0 90.609 40.1 90.609 89.488 0 49.389-40.602 89.488-90.609 89.488-50.008 0-90.61-40.099-90.61-89.488C173 40.1 213.602 0 263.61 0Z"/><path fill="#F2EAE2" d="M324.5 0C374.447 0 415 40.105 415 89.5S374.447 179 324.5 179 234 138.895 234 89.5 274.553 0 324.5 0Z"/></svg>