<svg xmlns="http://www.w3.org/2000/svg" width="120" height="100" fill="none"><path fill="#082C4E" d="M48.246 37.45.37 42.48 5.4 90.355l47.876-5.03-5.031-47.876Z" opacity=".2"/><path fill="#fff" d="M47.875 34 0 39.03l5.03 47.876 47.876-5.03L47.876 34Z"/><path stroke="#082C4E" stroke-linecap="round" stroke-linejoin="round" stroke-miterlimit="10" stroke-width="1.382" d="m40.815 57.852-30.43 3.15M21.385 66.722l-9.98 1.19M29.555 51.552l-19.81 2.32"/><path fill="#082C4E" d="m109.826 68.48-47.55-7.53 7.53-46.04 47.55 7.53-7.53 46.04Z" opacity=".2"/><path fill="#FC0" d="m118.136 17.53-47.548-7.529-7.529 47.548 47.548 7.529 7.529-47.548Z"/><path fill="#3098F3" d="M78.386 28.96a5.08 5.08 0 1 0 0-10.16 5.08 5.08 0 0 0 0 10.16ZM99.506 51.84a5.08 5.08 0 1 0 0-10.16 5.08 5.08 0 0 0 0 10.16Z"/></svg>