<svg xmlns="http://www.w3.org/2000/svg" width="487" height="444" fill="none"><path fill="#072C4E" d="M455.348 419.758h-20.649l2.71 7.28c-4.439 1.445-14.535 4.758-19.068 6.061-4.221 1.214-5.377 6.116-2.013 8.396 1.406.954 3.292 1.425 5.118 1.418l30.812-.11c4.284-.016 7.111-1.149 7.684-4.777a5.864 5.864 0 0 0-.168-2.495l-4.426-15.773ZM339.029 419.9h-21.896l2.405 7.12c-4.438 1.446-14.824 4.887-19.356 6.19-4.221 1.213-5.377 6.114-2.013 8.395 1.406.954 3.291 1.315 5.118 1.309h33.288l.144-.002c5.021-.061 8.463-5.108 6.817-9.856l-4.507-13.156Z"/><path stroke="#082C4E" stroke-linecap="round" stroke-linejoin="round" stroke-width="1.171" d="M409.072 217.256s14.717 41.946 27.973 85.016c5.939 19.295 26.427 92.41 32.69 110.369 1.125 3.222-1.266 6.957-4.675 6.957h-40.564c-4.294 0-8.862-3.358-10.155-7.457-28.535-90.441-45.036-176.667-45.036-176.667 0-.1-33.143 56.545-39.917 68.121a5.96 5.96 0 0 0-.659 4.368c2.998 12.809 17.758 75.471 26.645 105.51.873 2.952-1.26 6.036-4.336 6.06h-38.434c-3.04 0-6.236-2.389-7.11-5.304-10.38-34.579-17.767-68.424-24.038-99.586-2.737-13.6-.098-20.719 10.784-36.661 12.408-18.177 42.467-66.685 45.837-70.058"/><path fill="#072C4E" d="M115.842 420.105H95.194l-.375 5.858c-4.438 1.445-16.12 5.233-20.653 6.536-4.22 1.213-5.376 6.115-2.012 8.396 1.406.953 3.426 1.314 5.252 1.308h29.44c4.831-.018 7.809-1.458 7.791-6.294l1.205-15.804ZM221.841 419.544h21.896l5.803 6.418c4.438 1.446 16.12 5.234 20.652 6.537 4.221 1.213 5.377 6.115 2.013 8.396-1.406.953-3.291 1.313-5.119 1.307h-33.287c-4.831-.018-7.394-2.056-8.322-5.928l-3.636-16.73Z"/><path stroke="#082C4E" stroke-linecap="round" stroke-linejoin="round" stroke-width="1.171" d="M204.729 248.913c22.241 41.58 55.328 120.772 64.555 162.938.773 3.535-1.885 7.641-5.499 7.695h-50.539c-2.861.043-5.967-3.503-6.391-6.337-7.076-47.222-55.038-161.991-62.002-185.382 0 0-7.823 146.21-8.344 181.806-.075 5.155-3.514 10.533-8.665 10.533H85.756c-5.715 0-10.114-5.046-9.337-10.713 9.852-71.837 16.687-151.204 25.971-194.783M176.42 211.634c3.594 6.41 8.846 13.442 12.132 17.543M64.193 441.182c118.428 2.531 217.825 1.445 217.825 1.445M301.902 441.829c16.723.357 30.493.497 44.514.674 85.272 1.078 121.803.113 121.803.113"/><path stroke="#092C4E" stroke-linejoin="round" stroke-width="28.701" d="M236.645 83.768s22.6 32.434 53.161 48.391c29.886 15.6 68.326 15.931 70.005 15.937"/><path stroke="#FC0" stroke-width="26.358" d="M236.645 83.768s22.6 32.434 53.161 48.391c29.886 15.6 68.326 15.931 70.005 15.937"/><path fill="#FC0" d="M245.868 72.292 221.437 91.46l3.667 2.67 24.261-15.928-3.497-5.91Z"/><path stroke="#082C4E" stroke-linecap="round" stroke-linejoin="round" stroke-width="1.171" d="M233.386 84.57c-3.673-.796-7.564-8.28-8.65-11.57-.837-2.533-.252-4.469 1.99-5.474 3.228-1.448 7.517 2.332 8.168 3.136"/><path stroke="#082C4E" stroke-linecap="round" stroke-linejoin="round" stroke-width="1.171" d="M232.894 74.797c.777.874 2.657 4.063 3.141 5.128M223.791 71.55c-3.994-.832-4.678 2.727-4.421 4.637.655 4.875 4.991 11.092 7.586 13.37.792.694 2.007.889 2.995.524.988-.364 1.697-1.515 1.354-2.511"/><path stroke="#082C4E" stroke-linecap="round" stroke-linejoin="round" stroke-width="1.171" d="M219.009 75.379c-3.207-.084-3.996 3.346-3.471 6.029.905 4.614 4.589 8.359 6.759 9.9 1.052.746 3.948 1.458 4.888-1.148M250.642 75.914s-2.851-2.286-9.672-12.058c-3.571-5.117-5.535-8.118-7.407-9.924-2.328-2.244-4.427-3.018-5.592-1.74-1.313 1.439.121 6.111 1.78 9.446 2.93 5.886 10.28 17.014 12.301 19.58"/><path stroke="#082C4E" stroke-linecap="round" stroke-linejoin="round" stroke-width="1.171" d="M250.608 85.043c-3.08-2.466-13.44-5.152-15.853-5.076-3.025.095-2.903 3.334-.665 5.226 2.801 2.368 7.695 3.727 8.105 3.746 1.107.053-5.106 1.672-5.736 5.803"/><path stroke="#092C4E" stroke-linejoin="round" stroke-width="28.701" d="M452.521 272.674s25.33-36.55 10.11-73.255c-14.889-35.929-57.09-44.221-58.89-44.565"/><path stroke="#FC0" stroke-width="26.358" d="M452.521 272.674s25.33-36.55 10.11-73.255c-14.889-35.929-57.09-44.221-58.89-44.565"/><path fill="#2F97F3" d="m401.597 218.592-57.189-8.942a5.84 5.84 0 0 1-4.864-6.672l9.272-59.42c1.466-9.393 10.26-15.818 19.643-14.351l34.739 5.432c9.384 1.467 15.802 10.272 14.337 19.665l-9.273 59.419a5.835 5.835 0 0 1-6.665 4.869Z"/><path fill="#fff" d="m426.906 377.607-89.595-40.079 52.737-118.045 89.595 40.078-52.737 118.046Z"/><path stroke="#082C4E" stroke-linecap="round" stroke-linejoin="round" stroke-width="1.171" d="M363.188 321.185a21515.448 21515.448 0 0 1 44.779-57.685c1.005-1.29 2.117-2.654 3.691-3.097 1.617-.456 3.318.174 4.879.793l16.24 6.444M364.501 323.899c3.135.913 13.17 5.303 13.17 5.303s19.279-23.811 19.871-23.924c.321-.06 12.954 5.085 12.804 5.586-3.041 10.1-5.109 20.513-7.251 27.475-.126.409 16.235 7.694 16.515 7.573.505-.217.928-1.888 1.046-2.424 2.068-9.327 11.169-53.633 11.466-60.71"/><path stroke="#082C4E" stroke-linecap="round" stroke-linejoin="round" stroke-width="1.171" d="M404.475 293.674s7.362 3.377 9.357 4.153c.434.169 4.13-22.701 4.13-22.701l-13.487 18.548ZM439.124 263.485c-3.18 4.994-12.413 14.199-9.662 16.367 3.278 2.583 9.852-5.136 12.743-9.037M436.808 288.449c-.077 2.651 3.339 2.086 5.231 1.002 4.986-2.857 8.403-8.399 10.841-12.379"/><path stroke="#082C4E" stroke-linecap="round" stroke-linejoin="round" stroke-width="1.171" d="M443.268 268.687c-1.845 3.415-2.277 5.322-6.8 11.194-2.435 3.161-6 7.39-3.777 8.659 4.487 2.56 12.006-8.151 15.417-14.297M442.474 291.173c.418.694 1.759 1.668 3.926.792 3.588-1.449 7.283-4.142 9.212-7.499"/><path stroke="#092C4E" stroke-width="1.171" d="M439.078 263.343s7.96-9.92 10.034-22.732M477.183 256.847s-2.736 10.857-7.485 18.428M339.4 162.691s3.985.952 17.152-.464M346.952 131.54s4.298.547 16.162.054M416.784 175.925s-4.19-2.683-13.704-3.863M421.663 143.599s-8.492-3.641-16.684-3.932"/><path stroke="#082C4E" stroke-linecap="round" stroke-linejoin="round" stroke-width="1.171" d="M384.195 112.427s-5.452 3.677-11.586.656M376.651 103.656l-3.158 5.083 2.72 1.454"/><path stroke="#082C4E" stroke-linecap="round" stroke-linejoin="round" stroke-width="1.171" d="M376.382 102.883a4.05 4.05 0 0 1-4.311 3.772 4.05 4.05 0 0 1-3.768-4.315 4.05 4.05 0 0 1 4.31-3.772 4.052 4.052 0 0 1 3.769 4.315ZM386.47 104.018a4.05 4.05 0 0 1-4.31 3.772 4.05 4.05 0 0 1-3.768-4.314 4.05 4.05 0 0 1 4.31-3.772 4.05 4.05 0 0 1 3.768 4.314Z"/><path fill="#2F97F3" d="m376.672 103.36 1.72.116-1.72-.116Z"/><path stroke="#082C4E" stroke-linecap="round" stroke-linejoin="round" stroke-width="1.171" d="m376.672 103.36 1.72.116"/><path fill="#FD6470" d="M390.92 89.272c-2.122-2.795-5.386-4.697-9.16-4.95-6.926-.465-12.916 4.778-13.381 11.71l16.338 1.097c1.529 3.125 4.575 4.219 7.156 4.728 2.659.524 3.859 1.891 4.162 3.545.077.419.13.865.182 1.327a4.594 4.594 0 0 1 1.897-.274 4.621 4.621 0 0 1 2.1 8.556 10.173 10.173 0 0 0 5.286 1.859 18.862 18.862 0 0 0 2.131-7.546c.678-10.127-6.739-18.922-16.711-20.052Z"/><path stroke="#082C4E" stroke-linecap="round" stroke-linejoin="round" stroke-width="1.171" d="M404.724 117.94c-3.53 5.144-9.448 8.518-16.154 8.518-10.815 0-19.583-8.777-19.583-19.604 0-.514.02-1.023.059-1.529M142.11 97.147l5.145 3.5-2.131 2.771M147.516 105.676s-4.618 3.673-9.683 2.169c0 0 .812 6.611 7.211 5.384"/><path stroke="#082C4E" stroke-linecap="round" stroke-linejoin="round" stroke-width="1.171" d="M145.639 93.415a19.534 19.534 0 0 1 4.229 12.206c-.02 10.827-8.804 19.588-19.619 19.568a19.527 19.527 0 0 1-14.6-6.578"/><path fill="#2F97F3" d="M145.235 91.989a20.192 20.192 0 0 0-16.846-6.917c-.013 0-1.605.156-2.67.41-1.538.366-2.863.803-3.849 1.237a20.502 20.502 0 0 0-5.79 3.828 8.996 8.996 0 0 0-1.136-1.018 9.04 9.04 0 0 0-12.658 1.862c-2.982 4.013-2.15 9.686 1.859 12.671a8.99 8.99 0 0 0 5.649 1.779 19.9 19.9 0 0 0 .707 4.522c1.065 4.389 3.889 7.614 3.889 7.614 5.422-2.154 7.902-4.188 9.026-6.154a4.623 4.623 0 0 1-4.769-4.94 4.622 4.622 0 0 1 4.927-4.296c.428.03.837.121 1.223.258.431-1.053 1.219-2.11 2.648-3.179 4.32-3.231 5.596-6.378 5.444-8.918a20.101 20.101 0 0 0 12.346 1.24ZM.88 396.973c0 9.891 6.196 18.329 14.912 21.65-5.159 2.723-8.677 8.142-8.677 14.386v8.37h38.757v-8.37c0-6.244-3.519-11.663-8.678-14.386 8.717-3.321 14.913-11.759 14.913-21.65v-23.62H.88v23.62Z"/><path stroke="#082C4E" stroke-linecap="round" stroke-linejoin="round" stroke-width="1.171" d="M10.113 338.985a146.332 146.332 0 0 1 12.346 36.734M27.123 374.581c2.415-16.249 13.593-37.391 17.188-40.708"/><path stroke="#082C4E" stroke-linecap="round" stroke-linejoin="round" stroke-width="1.171" d="M18.019 373.028a151.547 151.547 0 0 1-7.906-10.769c-1.628-2.438-5.626-9.438-2.432-10.259 1.88-.483 4.613 3.238 6.387 5.42-5.062-7.395-9.926-15.527-10.124-24.49-.073-3.335.955-6.982 3.838-8.655 3.614-2.098 7.097 1.501 8.782 4.424 5.14 8.92 3.987 15.406 5.15 25.634.257-.822.41-3.312 1.673-3.319 4.083-.023 2.502 18.029 1.545 21.88M27.292 352.203c1.383-6.748 4.98-22.292 9.541-22.078 1.973.093 2.023 3.315 1.852 4.197 1.684-5.65 6.139-10.402 11.666-12.442 1.311-.484 2.857-.8 4.045-.064 1.072.666 1.532 2.041 1.441 3.3-.09 1.259-.637 2.434-1.191 3.568-2.211 4.508-6.212 10.394-8.986 14.579 3.594-2.475 5.154-3.029 7.048-2.719 1.522.25 2.523 1.868 2.57 3.411.048 1.543-.634 3.008-1.366 4.367a46.459 46.459 0 0 1-11.794 14.147c1.383.204 3.134-1.018 3.991.087.218.28.29.649.292 1.004.011 1.577-1.166 2.887-2.335 3.942a36.215 36.215 0 0 1-9.99 6.397"/><path fill="#FD6470" d="M429.549 57.5h43.255v59.238h-43.255V57.5Z"/><path stroke="#082C4E" stroke-linecap="round" stroke-linejoin="round" stroke-width="1.171" d="M435.41 63.736h31.505v46.376H435.41V63.736Z"/><path stroke="#082C4E" stroke-linecap="round" stroke-linejoin="round" stroke-width="1.171" d="M456.052 81.992c0 4.41-3.573 7.984-7.977 7.984-4.405 0-7.976-3.574-7.976-7.984 0-4.409 3.571-7.984 7.976-7.984 4.404 0 7.977 3.575 7.977 7.984ZM451.557 99.647a6.07 6.07 0 0 1 6.067-6.072 6.07 6.07 0 0 1 6.066 6.072M209.783 242.447c32.375-15.643 58.378-33.762 49.745-65.939-13.234-49.328-94.566-40.893-94.566-40.893"/><path stroke="#082C4E" stroke-linecap="round" stroke-linejoin="round" stroke-width="1.171" d="M171.815 166.09s45.495-6.017 56.956 11.695c7.939 12.27 3.415 24.812-14.38 35.086-7.702 4.448-20.111 8.174-27.862 12.736M201.331 241.351c-1.706 3.015-3.684 7.711-3.96 11.555-.038.529.037 1.368.395 1.757.626.68 1.763.246 2.493-.32"/><path stroke="#082C4E" stroke-linecap="round" stroke-linejoin="round" stroke-width="1.171" d="M191.368 226.711c-2.199 2.16-4.41 4.333-6.22 6.829-1.812 2.494-3.221 5.351-3.617 8.409-.08.623-.064 1.373.456 1.725.275.186.633.207.961.153 1.2-.2 2.047-1.247 2.793-2.208a108.648 108.648 0 0 1 6.845-7.988c-2.387 3.728-4.804 7.517-6.072 11.759-.164.548-.31 1.119-.237 1.687.073.568.41 1.136.95 1.323.503.175 1.058-.007 1.537-.238 2.179-1.046 3.733-3.052 5.012-5.105 1.279-2.052 2.78-4.686 3.706-5.951-2.241 3.234-5.308 8.321-6.094 13.044-.252 1.51.051 2.784.871 3.262 1.011.589 2.197-.649 2.543-1.056 2.588-3.037 4.611-7.913 6.444-10.865"/><path stroke="#092C4E" stroke-linejoin="round" stroke-width="28.701" d="M96.54 42.44s-65.724 18.562-58.343 67.372c7.239 47.852 73.011 47.103 75.572 47.056"/><path stroke="#FC0" stroke-width="26.358" d="M96.54 42.44s-65.724 18.562-58.343 67.372c7.239 47.852 73.011 47.103 75.572 47.056"/><path fill="#fff" d="m192.906 16.68-1.516-4.83a3.501 3.501 0 0 0-2.842-2.417L144.789 3.14a7.2 7.2 0 0 0-4.146.639l-25.651 13.94c-1.585-4.009-6.071-6.065-10.156-4.594l-6.778 2.442A8.023 8.023 0 0 0 93.23 25.83l12.485 34.73a8.011 8.011 0 0 0 10.254 4.83l6.778-2.441c3.364-1.212 5.419-4.442 5.297-7.836l27.749-2.823a6.97 6.97 0 0 0 3.96-1.838l32.207-30.163a3.507 3.507 0 0 0 .947-3.61Z"/><path stroke="#082C4E" stroke-linecap="round" stroke-linejoin="round" stroke-width="1.171" d="M192.236 14.56 158.211 25.27M147.178 28.744a5.79 5.79 0 0 1 3.783-7.26 5.782 5.782 0 0 1 7.252 3.786 5.791 5.791 0 0 1-3.782 7.26 5.783 5.783 0 0 1-7.253-3.786Z"/><path fill="#FC0" d="m90.754 29.629 7.612 27.124 3.903-.125-8.491-29.011-3.024 2.012Z"/><path stroke="#082C4E" stroke-linecap="round" stroke-linejoin="round" stroke-width="1.171" d="M89.723 41.093c3.988-2.058 9.992-3.853 14.524-6.472 4.373-2.529 2.906-4.86-1.114-4.279-3.007.436-10.35 2.21-15.795 4.679M91.94 47.175c1.32-.85 19.408-6.483 17.43-9.644-1.972-3.152-17.059 3.013-19.558 3.643M94.42 52.342c12.338-5.18 17.706-6.97 16.555-9.164-1.132-2.159-12.056 1.845-18.866 3.99"/><path fill="#FD6470" d="M178.171 200.487c-.755-9.29-8.747-16.249-17.98-15.791 6.329-3.033 10.405-9.789 9.691-17.186l-2.205-22.845c-.913-9.463-9.316-16.394-18.769-15.479l-32.33 3.127c-9.454.914-16.377 9.326-15.463 18.788l2.205 22.845c.665 6.905 5.322 12.457 11.463 14.601-8.259 1.829-14.111 9.521-13.406 18.197.77 9.476 9.068 16.531 18.535 15.76l42.515-3.463c9.467-.772 16.515-9.079 15.744-18.554Z"/></svg>